<?xml version="1.0" standalone="no"?>
<!DOCTYPE svg PUBLIC "-//W3C//DTD SVG 20010904//EN"
 "http://www.w3.org/TR/2001/REC-SVG-20010904/DTD/svg10.dtd">
<svg version="1.0" xmlns="http://www.w3.org/2000/svg"
 width="1080.000000pt" height="1080.000000pt" viewBox="0 0 1080.000000 1080.000000"
 preserveAspectRatio="xMidYMid meet">

<g transform="translate(0.000000,1080.000000) scale(0.100000,-0.100000)"
fill="#000000" stroke="none">
<path d="M4746 7288 c-3 -57 -8 -193 -11 -303 -3 -110 -17 -567 -30 -1015 -13
-448 -25 -864 -26 -925 -3 -129 -7 -155 -24 -155 -13 0 -25 -128 -25 -267 0
-39 -2 -77 -5 -85 -4 -11 -60 -12 -298 -8 l-292 5 -2 55 c-4 82 -52 1889 -59
2236 l-7 301 -96 6 c-53 3 -98 4 -100 1 -3 -3 -7 -201 -9 -442 -2 -240 -4
-437 -5 -437 -1 -1 -38 2 -82 5 -74 5 -80 7 -83 28 -2 13 -9 25 -15 27 -14 5
-570 45 -632 46 -22 0 -136 -11 -253 -25 -117 -14 -215 -26 -217 -26 -3 0 -5
-71 -5 -159 l0 -158 -31 -7 c-17 -3 -44 -6 -60 -6 -23 0 -29 -4 -29 -22 0 -38
13 -47 69 -50 48 -3 54 -6 58 -27 2 -13 -3 -35 -11 -50 -72 -135 -142 -268
-234 -441 l-108 -205 -145 -1 c-203 -3 -209 -3 -209 -13 0 -6 15 -11 33 -13
30 -3 32 -5 32 -43 0 -39 -1 -40 -37 -43 -32 -3 -38 -7 -38 -27 0 -20 6 -24
38 -27 l37 -3 5 -63 c4 -52 11 -70 40 -107 19 -24 43 -47 53 -50 9 -4 14 -11
11 -17 -3 -5 7 -23 24 -39 34 -33 29 -36 75 50 16 31 45 84 63 119 l35 62 159
0 c185 0 176 7 131 -105 l-28 -70 -77 -9 -77 -9 2 -70 2 -71 -94 3 -94 3 25
-27 c70 -76 391 -320 424 -323 5 0 12 -4 15 -9 6 -9 44 -33 121 -75 25 -14 62
-35 83 -48 20 -12 37 -18 37 -13 0 4 4 3 8 -3 9 -14 152 -86 152 -76 0 4 4 2
8 -4 8 -13 127 -67 148 -67 8 0 14 -4 14 -9 0 -4 5 -8 11 -8 6 0 25 -7 42 -14
136 -62 521 -191 539 -180 4 3 8 0 8 -6 0 -7 7 -10 15 -6 8 3 15 2 15 -2 0 -4
33 -16 73 -25 39 -10 125 -32 191 -48 65 -17 124 -28 132 -25 8 3 14 2 14 -3
0 -9 144 -37 173 -33 9 1 17 -3 17 -8 0 -5 10 -9 23 -9 12 1 55 -6 95 -15 77
-17 167 -29 217 -29 17 0 32 -3 35 -7 8 -12 305 -41 351 -34 30 4 39 2 30 -4
-16 -11 235 -28 267 -18 11 4 23 2 27 -4 10 -16 555 -14 555 3 0 9 3 9 9 -1
12 -20 208 -13 222 8 8 11 12 12 16 3 7 -20 128 -14 453 22 30 3 69 6 85 5 21
0 26 3 16 9 -9 6 2 8 30 8 53 -1 139 10 234 29 39 8 88 17 110 20 22 2 75 12
118 21 l77 16 0 368 0 369 33 0 32 0 -2 115 -1 115 42 0 43 0 6 -182 c4 -99 7
-309 7 -465 0 -244 2 -283 15 -283 13 0 15 58 17 438 l3 437 60 0 60 0 2 -315
c2 -568 0 -520 23 -520 24 0 38 31 34 71 l-3 28 116 3 c86 2 117 0 120 -9 3
-7 13 -13 22 -13 14 0 14 2 1 11 -12 8 -10 10 10 6 14 -3 50 3 80 13 l55 18
-60 4 -60 3 -5 248 c-3 142 -1 251 4 254 10 7 611 -294 635 -317 13 -12 15
-33 13 -101 l-3 -86 -152 0 c-84 0 -176 -1 -205 -2 l-53 -1 19 -25 c51 -64
351 -365 365 -365 34 0 197 71 282 122 50 31 110 65 135 78 25 12 61 37 81 54
20 17 50 42 65 56 16 13 55 46 88 73 42 36 54 52 45 58 -10 6 -15 103 -21 446
-28 1493 -36 1904 -40 1908 -2 3 -38 6 -79 7 l-74 3 -6 -335 c-4 -184 -12
-686 -19 -1115 -7 -429 -13 -781 -15 -783 -2 -2 -284 140 -565 286 -461 238
-712 363 -729 365 -16 1 -19 8 -17 38 3 31 -1 39 -23 51 -14 7 -28 16 -31 19
-24 29 -63 32 -444 35 -254 1 -391 6 -395 13 -4 6 -80 10 -201 12 -107 0 -199
5 -205 9 -5 4 -35 18 -65 30 -30 12 -73 31 -95 41 -22 10 -60 26 -85 37 -25
10 -59 25 -76 32 l-31 13 -6 321 c-4 177 -7 540 -7 808 0 435 2 487 15 481 21
-8 15 17 -9 40 -16 14 -38 17 -123 17 -56 0 -102 -3 -102 -7 3 -21 -3 -31 -21
-36 -26 -7 -26 -27 0 -27 20 0 20 -5 14 -312 -3 -172 -9 -502 -13 -732 l-6
-420 -110 2 c-92 1 -120 -2 -170 -21 -57 -21 -60 -24 -67 -62 -4 -22 -7 -68
-7 -102 -1 -34 -4 -64 -9 -67 -4 -2 -79 1 -166 7 -128 10 -160 15 -161 27 -1
8 -5 101 -9 205 -4 105 -15 411 -26 680 -33 811 -60 1517 -60 1542 0 23 -1 23
-129 23 l-129 0 -6 -102z m-1223 -998 l27 0 0 -152 0 -153 -55 -2 -55 -1 0 54
0 53 -152 3 -153 3 0 75 0 75 128 3 127 3 0 26 c0 25 1 26 53 19 28 -3 64 -6
80 -6z m-605 -127 l3 -113 -46 0 c-45 0 -45 0 -45 -35 l0 -35 -85 0 -85 0 0
44 c0 39 3 45 23 48 28 4 29 32 0 36 -12 2 -25 13 -29 24 -6 19 -11 20 -74 14
l-67 -7 -6 53 c-12 98 -34 89 201 86 l207 -3 3 -112z m166 104 c17 -3 19 -12
17 -72 -2 -44 -9 -82 -22 -107 -18 -35 -22 -38 -64 -38 l-45 0 0 116 0 117 48
-6 c26 -3 56 -8 66 -10z m551 -417 l0 -65 -47 -3 -48 -3 0 64 c0 35 3 67 7 71
4 4 25 6 48 4 l40 -3 0 -65z m-884 -15 c3 -28 5 -51 4 -53 -1 -1 -21 11 -43
28 -29 20 -42 38 -42 53 0 32 5 35 43 28 30 -6 32 -10 38 -56z m589 5 l0 -60
-57 0 c-35 1 -66 6 -77 15 -11 8 -35 15 -53 15 -25 0 -33 4 -33 18 0 9 -3 27
-6 39 -7 25 9 29 144 31 l82 2 0 -60z m-492 8 c2 -20 -4 -50 -13 -67 -14 -28
-18 -29 -40 -19 -23 10 -25 17 -25 70 l0 59 38 -3 c35 -3 37 -5 40 -40z m492
-228 c0 -49 -4 -90 -9 -90 -10 0 -51 160 -44 173 2 4 15 7 29 7 24 0 24 -1 24
-90z m295 3 c4 -75 3 -83 -16 -93 -11 -6 -33 -8 -50 -5 l-29 7 0 89 0 90 45
-3 46 -3 4 -82z m-1165 -118 l0 -95 -50 0 c-31 0 -50 4 -50 11 0 13 89 179 96
179 2 0 4 -43 4 -95z m1164 -71 c7 -17 -1 -21 -49 -26 -35 -3 -40 0 -43 19 -2
16 3 22 20 25 35 5 66 -2 72 -18z m-1174 -213 l0 -150 -131 -3 c-72 -2 -132
-2 -134 0 -2 2 30 70 71 153 l74 149 60 0 60 0 0 -149z m1171 -251 c-1 -201
-1 -373 -1 -382 0 -21 -35 -25 -47 -5 -4 6 -16 37 -25 67 -15 47 -18 98 -18
366 0 171 2 313 5 316 3 3 24 5 46 4 l40 -1 0 -365z m2832 -333 c20 -9 40 -16
44 -16 17 1 23 -36 23 -143 0 -65 -1 -118 -3 -118 -13 0 -133 54 -139 63 -8
13 -11 225 -3 238 4 5 13 5 23 0 9 -5 34 -16 55 -24z m1224 -104 c-4 -3 3 -11
16 -18 12 -6 66 -35 120 -64 l97 -53 0 -258 0 -259 -97 -3 c-54 -2 -113 -2
-130 0 l-33 3 0 324 c0 317 1 329 29 334 2 1 1 -2 -2 -6z m-5291 -49 c40 -51
47 -63 40 -80 -7 -17 -33 -18 -50 -1 -18 18 -47 97 -41 108 10 16 20 10 51
-27z m4689 -326 l0 -243 -139 -2 c-76 -1 -144 1 -150 3 -8 3 -10 73 -8 243 l3
240 27 3 c15 2 81 2 147 1 l120 -2 0 -243z m1758 -233 c126 -65 126 -78 -3
-85 -52 -3 -98 -4 -102 -2 -5 2 -8 35 -8 73 0 39 3 69 8 67 4 -1 51 -25 105
-53z"/>
<path d="M8383 3382 c-24 -9 -43 -20 -43 -24 0 -8 79 19 95 34 14 12 -4 9 -52
-10z"/>
</g>
</svg>
